<?xml version="1.0" standalone="no"?>
<!DOCTYPE svg PUBLIC "-//W3C//DTD SVG 20010904//EN"
 "http://www.w3.org/TR/2001/REC-SVG-20010904/DTD/svg10.dtd">
<svg version="1.0" xmlns="http://www.w3.org/2000/svg"
 width="569.000000pt" height="568.000000pt" viewBox="0 0 569.000000 568.000000"
 preserveAspectRatio="xMidYMid meet">

<g transform="translate(0.000000,568.000000) scale(0.100000,-0.100000)"
fill="#000000" stroke="none">
<path d="M2616 4285 c-181 -50 -338 -204 -390 -385 -20 -66 -31 -229 -22 -294
5 -30 18 -58 35 -79 23 -26 31 -48 39 -113 19 -143 68 -246 156 -334 45 -45
46 -45 46 -114 0 -48 -5 -75 -15 -86 -9 -10 -115 -62 -237 -116 -201 -89 -227
-104 -275 -152 -33 -34 -60 -74 -75 -110 -22 -56 -23 -64 -26 -522 -2 -255 -1
-474 2 -486 13 -52 76 -72 109 -36 15 17 17 64 17 475 0 251 2 457 4 457 9 0
190 -190 202 -211 10 -18 13 -101 14 -352 0 -324 3 -359 34 -379 20 -14 63 -8
80 11 15 17 17 51 14 382 -3 334 -5 367 -22 399 -10 19 -73 90 -138 157 -69
69 -117 126 -113 132 3 6 24 20 46 31 70 36 373 170 384 170 6 0 70 -60 142
-132 l133 -133 2 -491 c3 -468 4 -493 22 -513 24 -27 68 -27 92 0 18 20 19 45
22 513 l2 491 133 133 c72 72 136 132 142 132 11 0 314 -134 384 -170 22 -11
43 -25 46 -31 4 -6 -44 -63 -113 -132 -65 -67 -128 -138 -138 -157 -17 -32
-19 -65 -22 -399 -3 -331 -1 -365 14 -382 17 -19 60 -25 80 -11 31 20 34 55
34 379 1 251 4 334 14 352 12 21 193 211 202 211 2 0 4 -206 4 -458 0 -432 1
-460 18 -475 37 -34 95 -14 108 37 3 12 4 231 2 486 -3 458 -4 466 -26 522
-15 36 -42 76 -75 110 -48 48 -74 63 -275 152 -122 54 -228 106 -237 116 -10
11 -15 38 -15 86 0 69 1 69 46 114 112 111 163 254 164 460 0 67 3 78 25 98
37 36 48 89 35 178 -31 228 -192 411 -411 469 -71 19 -354 19 -423 0z m390
-129 c122 -32 222 -116 275 -231 30 -64 53 -173 40 -187 -13 -14 -115 -28
-208 -28 -171 0 -295 38 -412 126 -32 24 -70 44 -83 44 -32 0 -60 -32 -60 -67
0 -66 202 -188 361 -217 48 -9 138 -16 214 -16 l130 0 -6 -92 c-11 -152 -45
-236 -130 -320 -168 -167 -426 -167 -594 0 -74 74 -111 152 -128 275 -6 46 -5
48 26 65 60 32 109 82 109 111 0 72 -58 84 -139 28 -29 -20 -57 -34 -62 -31
-12 7 -11 101 1 182 24 170 148 313 309 358 63 17 293 17 357 0z m-296 -1232
c72 -18 171 -17 245 2 92 23 89 23 96 -21 3 -22 9 -51 13 -65 6 -22 -7 -39
-114 -145 l-120 -120 -120 120 c-95 94 -120 124 -115 140 3 11 8 36 11 55 9
57 13 63 32 55 9 -4 42 -14 72 -21z"/>
<path d="M1175 3927 c-107 -51 -175 -168 -161 -280 l5 -51 -57 -52 c-117 -106
-162 -226 -162 -429 0 -196 38 -304 147 -412 l63 -63 0 -83 c0 -103 2 -101
-176 -191 -95 -48 -143 -79 -172 -110 -67 -73 -72 -103 -72 -461 0 -349 1
-355 65 -355 63 0 65 9 65 324 l0 280 61 -59 c34 -33 67 -74 75 -92 10 -24 14
-82 14 -223 0 -177 1 -191 20 -210 28 -28 76 -26 95 4 14 21 16 56 13 238 -4
255 -3 252 -138 392 l-89 92 145 74 145 74 79 -79 79 -79 3 -354 c3 -337 4
-354 22 -368 27 -19 70 -18 89 4 15 17 17 57 17 368 l0 349 80 80 80 79 55
-27 c31 -15 66 -27 79 -27 43 0 72 60 47 99 -5 7 -31 25 -57 40 -61 33 -74 58
-74 146 l0 71 68 69 c113 117 142 198 142 410 0 218 -35 313 -159 428 l-58 53
5 61 c6 83 -18 151 -71 206 -57 58 -108 80 -192 85 -58 2 -79 -1 -120 -21z
m183 -127 c41 -25 72 -76 72 -118 0 -31 -2 -32 -27 -25 -31 9 -194 11 -233 3
-34 -7 -37 22 -8 80 38 75 126 102 196 60z m80 -296 c111 -54 188 -164 199
-284 l6 -58 -59 -12 c-117 -25 -248 17 -353 114 -70 65 -95 69 -143 27 -42
-37 -128 -91 -144 -91 -18 0 -7 63 23 130 40 91 129 169 223 196 70 21 181 11
248 -22z m-233 -388 c105 -79 263 -121 379 -99 l57 10 -6 -41 c-16 -98 -80
-191 -167 -243 -210 -125 -476 -6 -527 235 -16 76 -16 76 37 94 26 10 72 33
102 52 30 19 57 34 60 35 3 1 32 -19 65 -43z m85 -551 c47 0 97 3 111 7 26 8
26 7 32 -60 l6 -67 -75 -75 -74 -75 -75 75 -75 74 0 68 0 68 33 -8 c17 -4 70
-7 117 -7z"/>
<path d="M4034 3791 c-133 -49 -230 -149 -269 -277 -9 -31 -15 -91 -15 -166 0
-105 2 -120 20 -138 11 -11 27 -20 35 -20 12 0 15 -14 15 -67 0 -118 31 -202
102 -279 40 -43 40 -45 36 -105 -4 -54 -8 -64 -41 -94 -42 -39 -48 -74 -17
-105 23 -23 45 -25 81 -6 26 13 29 12 108 -68 l81 -81 0 -456 c0 -429 1 -457
18 -472 19 -18 59 -22 78 -9 32 21 34 53 34 494 l0 443 79 79 80 79 148 -73
c81 -40 167 -84 191 -98 l42 -24 -65 -69 c-114 -121 -110 -103 -113 -472 -3
-277 -1 -322 13 -343 19 -30 67 -32 95 -4 19 19 20 33 20 314 0 182 4 305 11
323 10 28 116 143 131 143 4 0 8 -170 8 -378 0 -423 0 -422 65 -422 65 0 65
-1 65 425 0 436 -3 456 -72 531 -33 35 -82 65 -242 145 -111 56 -211 111 -223
122 -19 17 -23 31 -23 79 0 54 3 62 44 112 57 71 87 150 93 254 4 57 10 82 19
82 7 0 22 12 33 26 18 22 21 41 21 114 0 221 -74 356 -238 437 l-76 38 -160 2
c-136 2 -169 -1 -212 -16z m393 -139 c99 -52 155 -142 157 -255 l1 -71 -45 2
c-106 6 -268 51 -372 103 -68 34 -98 36 -123 9 -23 -26 -113 -85 -142 -94 -22
-7 -23 -5 -23 51 0 95 51 187 131 239 59 37 96 43 239 41 118 -2 140 -5 177
-25z m-245 -371 c83 -33 207 -66 287 -77 l53 -7 -4 -71 c-7 -96 -38 -165 -100
-221 -90 -80 -202 -95 -314 -40 -102 50 -146 128 -152 266 l-4 97 33 11 c19 7
52 25 74 41 22 16 43 29 47 30 3 0 39 -13 80 -29z m53 -576 c44 1 95 4 113 9
31 8 32 8 32 -26 0 -29 -11 -44 -75 -108 l-75 -75 -76 77 c-69 71 -75 80 -69
108 6 29 9 31 38 23 18 -4 68 -8 112 -8z"/>
</g>
</svg>
